<svg width="10" height="6" fill="none" xmlns="http://www.w3.org/2000/svg"><path d="M9.811 1.662a.704.704 0 0 0-.004-.964.632.632 0 0 0-.922.004l-1.52 1.603c-.616.65-1.04 1.096-1.4 1.398-.35.293-.574.394-.775.42a1.437 1.437 0 0 1-.38 0c-.2-.026-.425-.127-.775-.42-.36-.302-.784-.748-1.4-1.398L1.115.702A.632.632 0 0 0 .193.698a.704.704 0 0 0-.004.964l1.547 1.631c.582.615 1.058 1.117 1.483 1.473.44.37.889.639 1.426.71.236.032.474.032.71 0 .537-.071.985-.34 1.426-.71.425-.356.9-.858 1.483-1.473l1.547-1.631Z" fill="#45AC3D"/><path d="M9.811 1.662a.704.704 0 0 0-.004-.964.632.632 0 0 0-.922.004l-1.52 1.603c-.616.65-1.04 1.096-1.4 1.398-.35.293-.574.394-.775.42a1.437 1.437 0 0 1-.38 0c-.2-.026-.425-.127-.775-.42-.36-.302-.784-.748-1.4-1.398L1.115.702A.632.632 0 0 0 .193.698a.704.704 0 0 0-.004.964l1.547 1.631c.582.615 1.058 1.117 1.483 1.473.44.37.889.639 1.426.71.236.032.474.032.71 0 .537-.071.985-.34 1.426-.71.425-.356.9-.858 1.483-1.473l1.547-1.631Z" fill="#333"/></svg>