<svg width="34" height="34" fill="none" xmlns="http://www.w3.org/2000/svg"><rect width="34" height="34" rx="17" fill="url(#a)"/><path d="M10.774 10.25a.776.776 0 0 0-.774.778c0 .43.347.778.774.778h6.194a.776.776 0 0 0 .774-.778.776.776 0 0 0-.774-.778h-6.194ZM10.774 16.472a.776.776 0 0 0-.774.778c0 .43.347.778.774.778h14.452A.776.776 0 0 0 26 17.25a.776.776 0 0 0-.774-.778H10.774ZM10.774 22.694a.776.776 0 0 0-.774.778c0 .43.347.778.774.778H20.84a.776.776 0 0 0 .774-.778.776.776 0 0 0-.774-.778H10.774Z" fill="#fff"/><defs><linearGradient id="a" x1="-2.975" y1="22.1" x2="19.928" y2="4.147" gradientUnits="userSpaceOnUse"><stop stop-color="#09B7D9"/><stop offset="1" stop-color="#96C61C"/></linearGradient></defs></svg>