<svg width="320" height="24" fill="none" xmlns="http://www.w3.org/2000/svg"><path d="M11.99 5.818A6.167 6.167 0 0 0 7.634 7.62a6.148 6.148 0 0 0 0 8.702 6.167 6.167 0 0 0 8.715 0 6.148 6.148 0 0 0 0-8.702 6.167 6.167 0 0 0-4.357-1.802Zm0 10.149a4.006 4.006 0 0 1-2.83-1.17 3.994 3.994 0 0 1 0-5.654 4.007 4.007 0 0 1 5.662 0 3.994 3.994 0 0 1 0 5.653c-.751.75-1.77 1.17-2.831 1.17ZM18.397 7.026a1.436 1.436 0 1 0-1.436-1.435c0 .792.643 1.435 1.436 1.435Z" fill="#fff"/><path d="M23.364 4.133A6.126 6.126 0 0 0 19.855.631a8.816 8.816 0 0 0-2.913-.56C15.658.017 15.252 0 11.997 0 8.743 0 8.326 0 7.053.072c-.995.02-1.98.208-2.91.559a6.132 6.132 0 0 0-3.51 3.502 8.75 8.75 0 0 0-.558 2.909C.017 8.322 0 8.728 0 11.979c0 3.25 0 3.663.075 4.937.02.995.208 1.977.558 2.91a6.134 6.134 0 0 0 3.51 3.502c.93.364 1.915.566 2.913.599C8.339 23.983 8.746 24 12 24c3.255 0 3.672 0 4.945-.073a8.827 8.827 0 0 0 2.913-.558 6.15 6.15 0 0 0 3.509-3.503c.35-.932.538-1.914.558-2.91.058-1.28.075-1.685.075-4.936 0-3.25 0-3.663-.075-4.937a8.746 8.746 0 0 0-.56-2.95Zm-1.623 12.684a6.702 6.702 0 0 1-.415 2.246 3.972 3.972 0 0 1-2.281 2.277 6.653 6.653 0 0 1-2.226.414c-1.266.058-1.623.073-4.87.073-3.249 0-3.58 0-4.87-.073a6.621 6.621 0 0 1-2.225-.414 3.979 3.979 0 0 1-2.291-2.277 6.75 6.75 0 0 1-.415-2.22c-.057-1.265-.07-1.621-.07-4.863 0-3.243 0-3.574.07-4.864a6.695 6.695 0 0 1 .415-2.244 3.977 3.977 0 0 1 2.29-2.279 6.686 6.686 0 0 1 2.225-.413c1.268-.058 1.623-.074 4.871-.074s3.581 0 4.87.074c.76.009 1.513.149 2.226.413a3.987 3.987 0 0 1 2.281 2.279 6.75 6.75 0 0 1 .415 2.22c.057 1.266.072 1.621.072 4.864 0 3.242 0 3.59-.057 4.862h-.015v-.001Z" fill="#fff"/><path d="M41.28 18V6.48h1.424V18H41.28Zm10.296 0v-4.328c0-.41-.037-.805-.112-1.184a2.97 2.97 0 0 0-.376-1.016 1.943 1.943 0 0 0-.72-.72c-.298-.176-.677-.264-1.136-.264-.357 0-.682.061-.976.184a1.909 1.909 0 0 0-.744.544 2.64 2.64 0 0 0-.488.928c-.112.368-.168.803-.168 1.304l-.936-.288c0-.837.15-1.555.448-2.152a3.269 3.269 0 0 1 1.272-1.384c.55-.325 1.195-.488 1.936-.488.56 0 1.038.088 1.432.264.395.176.723.41.984.704.262.288.467.613.616.976.15.357.254.723.312 1.096.064.368.096.717.096 1.048V18h-1.44Zm-6.16 0V9.36h1.28v2.312h.16V18h-1.44Zm13.264.232c-1.03 0-1.874-.224-2.536-.672-.656-.453-1.058-1.085-1.208-1.896l1.456-.232c.118.47.387.843.808 1.12.422.272.944.408 1.568.408.592 0 1.056-.123 1.392-.368.336-.245.504-.579.504-1 0-.245-.056-.443-.168-.592-.112-.155-.344-.299-.696-.432-.346-.133-.872-.293-1.576-.48-.762-.203-1.362-.413-1.8-.632-.437-.219-.75-.472-.936-.76-.186-.288-.28-.637-.28-1.048 0-.507.139-.95.416-1.328.278-.384.664-.68 1.16-.888.502-.208 1.083-.312 1.744-.312.656 0 1.243.104 1.76.312.518.208.934.504 1.248.888.32.379.51.821.568 1.328l-1.456.264a1.571 1.571 0 0 0-.672-1.096c-.373-.267-.856-.408-1.448-.424-.56-.021-1.016.077-1.368.296-.346.219-.52.515-.52.888 0 .208.064.387.192.536.134.15.376.29.728.424.358.133.875.285 1.552.456.763.192 1.363.403 1.8.632.443.224.758.49.944.8.187.304.28.68.28 1.128 0 .832-.306 1.488-.92 1.968-.613.475-1.458.712-2.536.712ZM69.045 18a6.406 6.406 0 0 1-1.52.12 3.374 3.374 0 0 1-1.328-.296 1.91 1.91 0 0 1-.888-.864 2.557 2.557 0 0 1-.28-1.032c-.011-.352-.016-.75-.016-1.192V6.96h1.424v7.712c0 .352.002.653.008.904.01.25.066.467.168.648.192.341.496.541.912.6.421.059.928.043 1.52-.048V18Zm-5.784-7.464V9.36h5.784v1.176H63.26Zm10.314 7.704c-.646 0-1.187-.117-1.624-.352a2.508 2.508 0 0 1-.984-.944 2.569 2.569 0 0 1-.328-1.28c0-.453.085-.845.256-1.176.176-.336.421-.613.736-.832.314-.224.69-.4 1.128-.528.41-.112.87-.208 1.376-.288a47.16 47.16 0 0 1 1.552-.232c.522-.07 1.01-.136 1.464-.2l-.512.296c.016-.768-.139-1.336-.464-1.704-.32-.368-.875-.552-1.664-.552-.523 0-.982.12-1.376.36-.39.235-.664.619-.824 1.152l-1.352-.408c.208-.757.61-1.352 1.208-1.784.597-.432 1.384-.648 2.36-.648.784 0 1.456.141 2.016.424.565.277.97.699 1.216 1.264.122.267.2.557.232.872.032.31.048.635.048.976V18h-1.264v-2.072l.296.192c-.326.699-.782 1.227-1.368 1.584-.582.357-1.29.536-2.128.536Zm.216-1.192c.512 0 .954-.09 1.328-.272.378-.187.682-.43.912-.728.23-.304.378-.635.448-.992.08-.267.122-.563.128-.888.01-.33.016-.584.016-.76l.496.216c-.464.064-.92.125-1.368.184-.448.059-.872.123-1.272.192-.4.064-.76.141-1.08.232-.235.075-.456.17-.664.288-.203.117-.368.27-.496.456-.123.181-.184.408-.184.68 0 .235.058.459.176.672.122.213.31.387.56.52.256.133.59.2 1 .2Zm10.144 5.032c-.454 0-.896-.07-1.328-.208a3.83 3.83 0 0 1-1.192-.632 3.469 3.469 0 0 1-.896-1.056l1.304-.688c.213.421.514.728.904.92.394.192.8.288 1.216.288.55 0 1.005-.101 1.368-.304.362-.197.63-.493.8-.888.176-.395.261-.885.256-1.472v-2.36h.168V9.36h1.264v8.696c0 .235-.008.461-.024.68-.01.219-.038.435-.08.648-.112.613-.334 1.117-.664 1.512-.33.4-.758.696-1.28.888-.523.197-1.128.296-1.816.296Zm-.104-3.84c-.806 0-1.496-.2-2.072-.6-.576-.405-1.022-.952-1.336-1.64-.31-.688-.464-1.464-.464-2.328 0-.864.154-1.64.464-2.328.314-.688.76-1.23 1.336-1.624.576-.4 1.264-.6 2.064-.6.816 0 1.501.197 2.056.592.554.395.973.936 1.256 1.624.288.688.432 1.467.432 2.336 0 .859-.144 1.635-.432 2.328-.283.688-.702 1.235-1.256 1.64-.555.4-1.238.6-2.048.6Zm.176-1.304c.581 0 1.058-.139 1.432-.416.373-.283.648-.67.824-1.16.181-.496.272-1.059.272-1.688 0-.64-.09-1.203-.272-1.688-.176-.49-.448-.872-.816-1.144-.368-.277-.835-.416-1.4-.416-.587 0-1.072.144-1.456.432a2.58 2.58 0 0 0-.848 1.168 4.727 4.727 0 0 0-.272 1.648c0 .613.093 1.168.28 1.664.186.49.466.88.84 1.168.378.288.85.432 1.416.432ZM90.353 18V9.36h1.272v2.088l-.209-.272c.102-.267.233-.512.392-.736a2.46 2.46 0 0 1 .552-.552c.225-.181.478-.32.76-.416a3.22 3.22 0 0 1 .864-.168c.294-.021.569-.003.825.056v1.336a2.7 2.7 0 0 0-.984-.064 1.999 1.999 0 0 0-.993.392 2.137 2.137 0 0 0-.647.72c-.15.283-.254.59-.313.92a5.621 5.621 0 0 0-.088 1V18h-1.431Zm8.463.24c-.645 0-1.187-.117-1.624-.352a2.508 2.508 0 0 1-.984-.944 2.569 2.569 0 0 1-.328-1.28c0-.453.085-.845.256-1.176.176-.336.421-.613.736-.832.315-.224.69-.4 1.128-.528.41-.112.87-.208 1.376-.288a47.041 47.041 0 0 1 1.552-.232c.523-.07 1.011-.136 1.464-.2l-.512.296c.016-.768-.139-1.336-.464-1.704-.32-.368-.875-.552-1.664-.552-.523 0-.981.12-1.376.36-.39.235-.664.619-.824 1.152l-1.352-.408c.208-.757.61-1.352 1.208-1.784.597-.432 1.384-.648 2.36-.648.784 0 1.456.141 2.016.424.565.277.971.699 1.216 1.264.123.267.2.557.232.872.032.31.048.635.048.976V18h-1.264v-2.072l.296.192c-.325.699-.781 1.227-1.368 1.584-.581.357-1.29.536-2.128.536Zm.216-1.192c.512 0 .955-.09 1.328-.272.379-.187.683-.43.912-.728.229-.304.379-.635.448-.992.08-.267.123-.563.128-.888.011-.33.016-.584.016-.76l.496.216c-.464.064-.92.125-1.368.184-.448.059-.872.123-1.272.192-.4.064-.76.141-1.08.232-.235.075-.456.17-.664.288-.203.117-.368.27-.496.456-.123.181-.184.408-.184.68 0 .235.059.459.176.672.123.213.31.387.56.52.256.133.59.2 1 .2Zm16.976.952.008-5.528c0-.645-.173-1.15-.52-1.512-.341-.368-.787-.552-1.336-.552-.32 0-.624.075-.912.224a1.676 1.676 0 0 0-.704.688c-.181.31-.272.707-.272 1.192l-.752-.304c-.011-.613.115-1.15.376-1.608a2.822 2.822 0 0 1 1.088-1.08 3.13 3.13 0 0 1 1.552-.384c.901 0 1.611.275 2.128.824.517.544.776 1.277.776 2.2l-.008 5.84h-1.424Zm-10.336 0V9.36h1.272v2.312h.16V18h-1.432Zm5.176 0 .008-5.472c0-.661-.171-1.179-.512-1.552-.341-.379-.795-.568-1.36-.568-.56 0-1.013.192-1.36.576-.347.384-.52.893-.52 1.528l-.752-.448c0-.56.133-1.061.4-1.504.267-.443.629-.79 1.088-1.04a3.148 3.148 0 0 1 1.56-.384c.581 0 1.088.123 1.52.368.432.245.765.597 1 1.056.235.453.352.995.352 1.624L112.264 18h-1.416Z" fill="#fff" fill-opacity=".75"/></svg>