<svg width="252" height="52" fill="none" xmlns="http://www.w3.org/2000/svg"><path fill-rule="evenodd" clip-rule="evenodd" d="m4.992 40.373-.017-.022-.017-.023c-8.156-10.72-6.029-25.976 4.758-34.09 4.53-3.407 10.53-4.954 15.033-3.923-11.72.932-19.712 16.627-16.496 27.026.487-.754 1.402-1.654 2.163-2.226 3.458-2.601 8.184-2.438 10.822.968l.017.022.018.022c2.586 3.445 1.463 8.007-1.995 10.608-.76.573-1.88 1.203-2.743 1.465 9.208 5.891 26.586 2.504 30.665-8.448-.22 4.585-3.345 9.9-7.876 13.308-10.787 8.113-26.152 6.013-34.332-4.687Z" fill="#96C61C"/><path fill-rule="evenodd" clip-rule="evenodd" d="m44.093 11.077-.012-.017-.014-.017-.012-.017-.014-.017C37.858 2.971 26.803 1.116 18.65 7.211c-3.425 2.56-6.083 6.819-6.25 10.263C15.523 9.14 28.21 6.62 35.317 11.139c-.653.197-1.499.67-2.074 1.1-2.614 1.954-3.462 5.381-1.507 7.968l.013.017.013.017.013.017.013.017c1.994 2.558 5.566 2.68 8.18.727.575-.43 1.267-1.106 1.635-1.672 2.482 7.975-3.413 19.345-12.387 20.054 3.404.775 8.279-.596 11.703-3.156 8.154-6.095 9.34-17.1 3.175-25.151Z" fill="#09B7D9"/><path d="M176.98 36.286c-1.959 0-3.669-.444-5.129-1.331a9.082 9.082 0 0 1-3.354-3.632c-.777-1.553-1.165-3.29-1.165-5.212 0-2.015.398-3.808 1.192-5.379.814-1.59 1.95-2.818 3.411-3.687 1.478-.887 3.179-1.33 5.101-1.33.887 0 1.7.073 2.44.221.739.148 1.376.36 1.912.638.518.258.915.582 1.193.97.277.388.416.813.416 1.275 0 .37-.084.712-.25 1.026a2.255 2.255 0 0 1-.665.776 1.663 1.663 0 0 1-.943.278 2.05 2.05 0 0 1-.527-.084 25.614 25.614 0 0 0-.637-.221c-.61-.24-1.128-.416-1.553-.527a4.186 4.186 0 0 0-1.275-.194c-1.054 0-1.978.259-2.773.776-.776.518-1.367 1.238-1.774 2.163-.407.924-.61 1.996-.61 3.216 0 1.164.194 2.2.582 3.105.388.887.943 1.59 1.664 2.107.739.499 1.608.748 2.606.748.665 0 1.229-.055 1.691-.166.462-.11.943-.268 1.442-.471.221-.093.443-.176.665-.25.222-.074.434-.11.638-.11.61 0 1.081.184 1.414.554.332.37.499.85.499 1.441 0 .463-.139.888-.416 1.276-.259.388-.629.72-1.109.998-.592.314-1.294.564-2.107.748-.814.185-1.673.278-2.579.278ZM187.787 35.87c-.389 0-.749-.093-1.082-.277a2.078 2.078 0 0 1-.748-.749 2.19 2.19 0 0 1-.278-1.081V18.182c0-.684.195-1.22.583-1.608.388-.407.915-.61 1.58-.61.647 0 1.164.203 1.553.61.406.388.609.924.609 1.608v13.696h4.908c.628 0 1.136.175 1.525.526.388.351.582.841.582 1.47 0 .591-.194 1.072-.582 1.441-.389.37-.888.555-1.498.555h-7.152ZM201.412 36.036c-.666 0-1.192-.194-1.581-.582-.388-.407-.582-.952-.582-1.636V18.182c0-.684.194-1.22.582-1.608.389-.407.915-.61 1.581-.61.647 0 1.164.203 1.552.61.407.388.61.924.61 1.608v15.636c0 .684-.203 1.23-.61 1.636-.388.388-.905.582-1.552.582ZM209.404 36.036c-.665 0-1.192-.194-1.58-.582-.388-.407-.582-.952-.582-1.636V18.182c0-.684.194-1.22.582-1.608.406-.407.933-.61 1.58-.61.462 0 .832.092 1.109.277.296.185.638.518 1.026.998l8.511 10.785h.056v-9.842c0-.684.194-1.22.582-1.608.388-.407.915-.61 1.58-.61.647 0 1.165.203 1.553.61.406.388.61.924.61 1.608v15.636c0 .684-.204 1.23-.61 1.636-.388.388-.906.582-1.553.582-.462 0-.85-.11-1.164-.333-.314-.221-.693-.6-1.137-1.136l-8.345-10.59h-.055v9.841c0 .684-.204 1.23-.61 1.636-.388.388-.906.582-1.553.582ZM230.23 36.036c-.666 0-1.192-.194-1.58-.582-.389-.407-.583-.952-.583-1.636V18.182c0-.684.194-1.22.583-1.608.388-.407.914-.61 1.58-.61.647 0 1.164.203 1.552.61.407.388.61.924.61 1.608v15.636c0 .684-.203 1.23-.61 1.636-.388.388-.905.582-1.552.582ZM245.181 36.286c-1.959 0-3.669-.444-5.129-1.331-1.442-.887-2.56-2.098-3.355-3.632-.776-1.553-1.164-3.29-1.164-5.212 0-2.015.397-3.808 1.192-5.379.813-1.59 1.95-2.818 3.41-3.687 1.479-.887 3.179-1.33 5.101-1.33.888 0 1.701.073 2.44.221.74.148 1.377.36 1.913.638.518.258.915.582 1.192.97.278.388.416.813.416 1.275 0 .37-.083.712-.249 1.026a2.258 2.258 0 0 1-.666.776 1.658 1.658 0 0 1-.942.278c-.148 0-.324-.028-.527-.084a24.367 24.367 0 0 0-.638-.221 14.07 14.07 0 0 0-1.552-.527 4.187 4.187 0 0 0-1.276-.194c-1.053 0-1.977.259-2.772.776-.776.518-1.368 1.238-1.774 2.163-.407.924-.61 1.996-.61 3.216 0 1.164.194 2.2.582 3.105.388.887.942 1.59 1.663 2.107.74.499 1.608.748 2.606.748.666 0 1.23-.055 1.692-.166.462-.11.942-.268 1.441-.471.222-.093.444-.176.666-.25a2.01 2.01 0 0 1 .637-.11c.61 0 1.082.184 1.414.554.333.37.499.85.499 1.441 0 .463-.138.888-.416 1.276-.258.388-.628.72-1.109.998-.591.314-1.293.564-2.107.748-.813.185-1.672.278-2.578.278Z" fill="#09B7D9"/><path d="M70.734 36.036c-.665 0-1.192-.194-1.58-.582-.388-.407-.583-.952-.583-1.636V18.182c0-.684.195-1.22.583-1.608.388-.407.915-.61 1.58-.61.647 0 1.164.203 1.553.61.406.388.61.924.61 1.608v5.572h8.538v-5.572c0-.684.195-1.22.583-1.608.388-.407.915-.61 1.58-.61.647 0 1.164.203 1.552.61.407.388.61.924.61 1.608v15.636c0 .684-.203 1.23-.61 1.636-.388.388-.905.582-1.552.582-.665 0-1.192-.194-1.58-.582-.388-.407-.582-.952-.582-1.636v-6.071h-8.54v6.071c0 .684-.203 1.23-.61 1.636-.388.388-.905.582-1.552.582ZM90.367 36.036c-.629 0-1.137-.157-1.525-.471-.37-.333-.555-.767-.555-1.303 0-.666.222-1.571.666-2.717l4.907-13.142c.333-.887.749-1.552 1.248-1.996.517-.462 1.155-.693 1.913-.693.739 0 1.358.231 1.857.693.518.444.943 1.11 1.275 1.997l4.935 13.196c.204.592.361 1.09.472 1.497.111.389.166.777.166 1.165 0 .536-.194.97-.582 1.303-.37.314-.869.471-1.497.471-.629 0-1.109-.175-1.442-.527-.333-.35-.61-.896-.832-1.635l-.61-1.83H93.25l-.582 1.774c-.185.573-.379 1.026-.582 1.359-.204.314-.444.536-.721.665-.259.13-.592.194-.998.194Zm9.121-8.012-2.384-7.486h-.056l-2.523 7.486h4.963ZM110.409 36.036c-.665 0-1.192-.194-1.58-.582-.389-.407-.583-.952-.583-1.636v-15.58c0-.389.093-.74.278-1.054.184-.333.434-.592.748-.777a2.19 2.19 0 0 1 1.081-.277h5.628c1.146 0 2.218.259 3.216.776a6.262 6.262 0 0 1 2.468 2.246c.628.98.943 2.135.943 3.466 0 1.404-.268 2.624-.804 3.66a5.702 5.702 0 0 1-2.274 2.356c-.979.536-2.125.804-3.438.804h-3.521v4.38c0 .684-.203 1.23-.61 1.636-.388.388-.905.582-1.552.582Zm4.713-10.452c.573 0 1.081-.12 1.525-.36.462-.26.822-.601 1.081-1.026.259-.425.388-.887.388-1.386 0-.888-.277-1.58-.831-2.08-.536-.499-1.248-.748-2.135-.748h-2.579v5.6h2.551ZM127.607 36.036c-.666 0-1.193-.194-1.581-.582-.388-.407-.582-.952-.582-1.636v-15.58c0-.389.093-.74.277-1.054a2.02 2.02 0 0 1 .749-.777 2.19 2.19 0 0 1 1.081-.277h5.628c1.146 0 2.218.259 3.216.776a6.27 6.27 0 0 1 2.468 2.246c.628.98.942 2.135.942 3.466 0 1.404-.268 2.624-.804 3.66a5.706 5.706 0 0 1-2.273 2.356c-.98.536-2.126.804-3.438.804h-3.521v4.38c0 .684-.203 1.23-.61 1.636-.388.388-.905.582-1.552.582Zm4.713-10.452c.573 0 1.081-.12 1.525-.36.462-.26.822-.601 1.081-1.026.259-.425.388-.887.388-1.386 0-.888-.277-1.58-.832-2.08-.536-.499-1.247-.748-2.135-.748h-2.578v5.6h2.551ZM148.908 36.036c-.647 0-1.174-.194-1.581-.582-.388-.407-.582-.952-.582-1.636V26.61l-3.881-5.35c-.703-.944-1.183-1.637-1.442-2.08-.277-.462-.416-.897-.416-1.303 0-.351.102-.675.305-.97.203-.296.481-.527.832-.694.351-.166.739-.25 1.164-.25.37 0 .693.084.971.25.295.167.526.36.693.582.185.204.406.481.665.832l3.272 4.769 3.354-4.88c.314-.462.601-.804.86-1.025.277-.222.517-.36.72-.416.204-.074.435-.111.694-.111.425 0 .813.083 1.164.25.351.166.619.397.804.692.203.296.305.62.305.97 0 .389-.12.805-.36 1.248-.241.425-.703 1.09-1.387 1.997l-3.992 5.489v7.208c0 .684-.194 1.23-.582 1.636-.388.388-.915.582-1.58.582Z" fill="#96C61C"/></svg>