<svg width="24" height="24" fill="none" xmlns="http://www.w3.org/2000/svg"><path d="M20.105 16.692v2.58a1.72 1.72 0 0 1-1.875 1.72 17.021 17.021 0 0 1-7.422-2.64 16.771 16.771 0 0 1-5.16-5.16 17.021 17.021 0 0 1-2.641-7.457A1.72 1.72 0 0 1 4.719 3.86h2.58a1.72 1.72 0 0 1 1.72 1.48c.109.825.31 1.636.602 2.416a1.72 1.72 0 0 1-.387 1.815l-1.092 1.092a13.762 13.762 0 0 0 5.16 5.16l1.093-1.092a1.72 1.72 0 0 1 1.814-.387c.78.292 1.591.494 2.417.603a1.72 1.72 0 0 1 1.48 1.745Z" fill="url(#a)"/><defs><linearGradient id="a" x1="-5.5" y1="21" x2="5.505" y2="-2.927" gradientUnits="userSpaceOnUse"><stop stop-color="#09B7D9"/><stop offset="1" stop-color="#96C61C"/></linearGradient></defs></svg>