<svg width="18" height="18" fill="none" xmlns="http://www.w3.org/2000/svg"><path d="M18 13.476v2.71a1.803 1.803 0 0 1-1.23 1.719c-.24.08-.492.11-.744.088a17.933 17.933 0 0 1-7.81-2.773 17.63 17.63 0 0 1-5.43-5.42A17.852 17.852 0 0 1 .007 1.97 1.803 1.803 0 0 1 1.08.153c.23-.101.478-.154.73-.154h2.714a1.812 1.812 0 0 1 1.81 1.554c.115.867.328 1.718.634 2.538a1.803 1.803 0 0 1-.407 1.906L5.41 7.145a14.466 14.466 0 0 0 5.43 5.42l1.15-1.148a1.811 1.811 0 0 1 1.91-.406c.82.305 1.674.518 2.543.632a1.81 1.81 0 0 1 1.556 1.833Z" fill="#fff"/></svg>