<svg width="10" height="6" viewBox="0 0 10 6" fill="none" xmlns="http://www.w3.org/2000/svg">
<path d="M9.81104 1.66178C10.0646 1.39433 10.0627 0.96263 9.80692 0.697554C9.5511 0.432478 9.13817 0.434404 8.88462 0.701856L7.36522 2.30455C6.74858 2.955 6.32419 3.40119 5.9646 3.7031C5.6153 3.99637 5.39094 4.09698 5.19 4.12375C5.06383 4.14057 4.93617 4.14057 4.81 4.12375C4.60906 4.09698 4.3847 3.99637 4.0354 3.7031C3.67581 3.40119 3.25142 2.955 2.63478 2.30456L1.11538 0.701856C0.861832 0.434405 0.448903 0.432479 0.193079 0.697555C-0.0627441 0.96263 -0.0645864 1.39433 0.188965 1.66178L1.73573 3.29335C2.3183 3.90787 2.79442 4.41013 3.21866 4.76631C3.65981 5.1367 4.10759 5.40482 4.64508 5.47645C4.88075 5.50785 5.11925 5.50785 5.35492 5.47645C5.89241 5.40482 6.34019 5.1367 6.78134 4.76631C7.20558 4.41012 7.6817 3.90788 8.26426 3.29336L9.81104 1.66178Z" fill="#45AC3D"/>
<path d="M9.81104 1.66178C10.0646 1.39433 10.0627 0.96263 9.80692 0.697554C9.5511 0.432478 9.13817 0.434404 8.88462 0.701856L7.36522 2.30455C6.74858 2.955 6.32419 3.40119 5.9646 3.7031C5.6153 3.99637 5.39094 4.09698 5.19 4.12375C5.06383 4.14057 4.93617 4.14057 4.81 4.12375C4.60906 4.09698 4.3847 3.99637 4.0354 3.7031C3.67581 3.40119 3.25142 2.955 2.63478 2.30456L1.11538 0.701856C0.861832 0.434405 0.448903 0.432479 0.193079 0.697555C-0.0627441 0.96263 -0.0645864 1.39433 0.188965 1.66178L1.73573 3.29335C2.3183 3.90787 2.79442 4.41013 3.21866 4.76631C3.65981 5.1367 4.10759 5.40482 4.64508 5.47645C4.88075 5.50785 5.11925 5.50785 5.35492 5.47645C5.89241 5.40482 6.34019 5.1367 6.78134 4.76631C7.20558 4.41012 7.6817 3.90788 8.26426 3.29336L9.81104 1.66178Z" fill="#333333"/>
</svg>
