<svg width="10" height="6" viewBox="0 0 10 6" fill="none" xmlns="http://www.w3.org/2000/svg">
<path d="M9.81104 4.33822C10.0646 4.60567 10.0627 5.03737 9.80692 5.30245C9.5511 5.56752 9.13817 5.5656 8.88462 5.29814L7.36522 3.69545C6.74858 3.045 6.32419 2.59881 5.9646 2.2969C5.6153 2.00363 5.39094 1.90302 5.19 1.87625C5.06383 1.85943 4.93617 1.85943 4.81 1.87625C4.60906 1.90302 4.3847 2.00363 4.0354 2.2969C3.67581 2.59881 3.25142 3.045 2.63478 3.69544L1.11538 5.29814C0.861832 5.5656 0.448903 5.56752 0.193079 5.30245C-0.0627441 5.03737 -0.0645864 4.60567 0.188965 4.33822L1.73573 2.70665C2.3183 2.09213 2.79442 1.58987 3.21866 1.23369C3.65981 0.863297 4.10759 0.595177 4.64508 0.523554C4.88075 0.492149 5.11925 0.492149 5.35492 0.523554C5.89241 0.595177 6.34019 0.863298 6.78134 1.23369C7.20558 1.58988 7.6817 2.09212 8.26426 2.70664L9.81104 4.33822Z" fill="#329C66"/>
</svg>
