<svg width="34" height="34" viewBox="0 0 34 34" fill="none" xmlns="http://www.w3.org/2000/svg">
<rect width="34" height="34" rx="17" fill="url(#paint0_linear_110_3343)"/>
<path d="M10.7742 10.25C10.3466 10.25 10 10.5982 10 11.0278C10 11.4573 10.3466 11.8056 10.7742 11.8056H16.9677C17.3953 11.8056 17.7419 11.4573 17.7419 11.0278C17.7419 10.5982 17.3953 10.25 16.9677 10.25H10.7742Z" fill="white"/>
<path d="M10.7742 16.4722C10.3466 16.4722 10 16.8204 10 17.25C10 17.6796 10.3466 18.0278 10.7742 18.0278H25.2258C25.6534 18.0278 26 17.6796 26 17.25C26 16.8204 25.6534 16.4722 25.2258 16.4722H10.7742Z" fill="white"/>
<path d="M10.7742 22.6944C10.3466 22.6944 10 23.0427 10 23.4722C10 23.9018 10.3466 24.25 10.7742 24.25H20.8387C21.2663 24.25 21.6129 23.9018 21.6129 23.4722C21.6129 23.0427 21.2663 22.6944 20.8387 22.6944H10.7742Z" fill="white"/>
<defs>
<linearGradient id="paint0_linear_110_3343" x1="-2.975" y1="22.1" x2="19.9276" y2="4.14744" gradientUnits="userSpaceOnUse">
<stop stop-color="#09B7D9"/>
<stop offset="1" stop-color="#96C61C"/>
</linearGradient>
</defs>
</svg>
