<svg width="34" height="34" viewBox="0 0 34 34" fill="none" xmlns="http://www.w3.org/2000/svg">
<rect width="34" height="34" rx="17" fill="url(#paint0_linear_437_3359)"/>
<path fill-rule="evenodd" clip-rule="evenodd" d="M10.7804 10.0719C10.3898 9.68143 9.75654 9.68143 9.36596 10.0719C8.97538 10.4624 8.97538 11.0955 9.36596 11.4859L15.6591 17.7774L9.36422 24.0706C8.97365 24.4611 8.97364 25.0942 9.36422 25.4847C9.7548 25.8751 10.388 25.8751 10.7786 25.4847L17.0735 19.1914L23.3684 25.4847C23.759 25.8751 24.3923 25.8751 24.7828 25.4847C25.1734 25.0942 25.1734 24.4611 24.7828 24.0706L18.4879 17.7774L24.7811 11.4859C25.1717 11.0955 25.1717 10.4624 24.7811 10.0719C24.3905 9.68143 23.7573 9.68143 23.3667 10.0719L17.0735 16.3634L10.7804 10.0719Z" fill="white"/>
<defs>
<linearGradient id="paint0_linear_437_3359" x1="-2.975" y1="22.1" x2="19.9276" y2="4.14744" gradientUnits="userSpaceOnUse">
<stop stop-color="#09B7D9"/>
<stop offset="1" stop-color="#96C61C"/>
</linearGradient>
</defs>
</svg>
