<svg width="320" height="24" viewBox="0 0 320 24" fill="none" xmlns="http://www.w3.org/2000/svg">
<path d="M11.9907 5.81787C10.3563 5.81787 8.78882 6.46614 7.63311 7.62005C6.4774 8.77397 5.82813 10.339 5.82812 11.9709C5.82813 13.6028 6.4774 15.1678 7.63311 16.3217C8.78882 17.4757 10.3563 18.1239 11.9907 18.1239C13.6251 18.1239 15.1926 17.4757 16.3483 16.3217C17.504 15.1678 18.1533 13.6028 18.1533 11.9709C18.1533 10.339 17.504 8.77397 16.3483 7.62005C15.1926 6.46614 13.6251 5.81787 11.9907 5.81787ZM11.9907 15.9669C10.9289 15.9669 9.91059 15.5458 9.15978 14.7961C8.40897 14.0465 7.98717 13.0297 7.98717 11.9696C7.98717 10.9094 8.40897 9.89267 9.15978 9.14302C9.91059 8.39338 10.9289 7.97223 11.9907 7.97223C13.0525 7.97223 14.0708 8.39338 14.8217 9.14302C15.5725 9.89267 15.9943 10.9094 15.9943 11.9696C15.9943 13.0297 15.5725 14.0465 14.8217 14.7961C14.0708 15.5458 13.0525 15.9669 11.9907 15.9669Z" fill="white"/>
<path d="M18.3973 7.02567C19.1907 7.02567 19.834 6.38344 19.834 5.5912C19.834 4.79897 19.1907 4.15674 18.3973 4.15674C17.6038 4.15674 16.9606 4.79897 16.9606 5.5912C16.9606 6.38344 17.6038 7.02567 18.3973 7.02567Z" fill="white"/>
<path d="M23.3643 4.13307C23.0558 3.33757 22.5843 2.61515 21.98 2.01205C21.3758 1.40896 20.652 0.938485 19.8552 0.630738C18.9227 0.281247 17.9376 0.0922703 16.9418 0.0718562C15.6584 0.0159679 15.2519 0 11.9973 0C8.74278 0 8.32563 -1.33843e-07 7.05287 0.0718562C6.05783 0.0912265 5.07342 0.280241 4.14216 0.630738C3.34509 0.938126 2.62119 1.40848 2.01688 2.01161C1.41258 2.61475 0.94122 3.33736 0.633052 4.13307C0.282947 5.06402 0.0941109 6.04769 0.0746335 7.04192C0.0173256 8.32202 0 8.72788 0 11.9787C0 15.2282 -9.92969e-09 15.642 0.0746335 16.9155C0.0946246 17.9108 0.282541 18.8929 0.633052 19.8257C0.942085 20.6211 1.4139 21.3434 2.01835 21.9465C2.6228 22.5495 3.3466 23.0201 4.14349 23.328C5.07299 23.6915 6.0578 23.8941 7.05553 23.9268C8.33896 23.9827 8.74545 24 12 24C15.2546 24 15.6717 24 16.9445 23.9268C17.9402 23.9066 18.9252 23.7181 19.8578 23.3693C20.6545 23.0608 21.378 22.5899 21.9822 21.9867C22.5864 21.3834 23.058 20.661 23.3669 19.8656C23.7175 18.9341 23.9054 17.9521 23.9254 16.9568C23.9827 15.6766 24 15.2708 24 12.02C24 8.76913 24 8.35662 23.9254 7.08317C23.9099 6.07488 23.72 5.07684 23.3643 4.13307ZM21.741 16.817C21.7324 17.5839 21.5922 18.3436 21.3265 19.0632C21.1264 19.5807 20.82 20.0506 20.427 20.4427C20.0341 20.8348 19.5632 21.1405 19.0449 21.34C18.3322 21.6041 17.5793 21.744 16.8192 21.7538C15.5531 21.8124 15.1959 21.827 11.9494 21.827C8.70013 21.827 8.36828 21.827 7.07819 21.7538C6.31843 21.7445 5.56596 21.6045 4.85384 21.34C4.33366 21.1417 3.86095 20.8366 3.46631 20.4444C3.07167 20.0522 2.76389 19.5817 2.56286 19.0632C2.30091 18.3514 2.16079 17.6006 2.14838 16.8423C2.09107 15.5782 2.07774 15.2216 2.07774 11.98C2.07774 8.73719 2.07774 8.40585 2.14838 7.11643C2.15699 6.35 2.29719 5.59071 2.56286 4.87159C2.96935 3.82169 3.80231 2.99534 4.85384 2.59348C5.56631 2.33019 6.31856 2.19024 7.07819 2.17964C8.34562 2.12242 8.70147 2.10645 11.9494 2.10645C15.1972 2.10645 15.5304 2.10645 16.8192 2.17964C17.5794 2.18877 18.3323 2.32877 19.0449 2.59348C19.5632 2.79344 20.034 3.0994 20.4269 3.49172C20.8198 3.88404 21.1262 4.35405 21.3265 4.87159C21.5885 5.58343 21.7286 6.33421 21.741 7.09248C21.7983 8.35795 21.813 8.71324 21.813 11.9561C21.813 15.1976 21.813 15.5462 21.7557 16.8184H21.741V16.817Z" fill="white"/>
<path d="M41.28 18V6.48H42.704V18H41.28ZM51.5764 18V13.672C51.5764 13.2613 51.539 12.8667 51.4644 12.488C51.395 12.1093 51.2697 11.7707 51.0884 11.472C50.9124 11.168 50.6724 10.928 50.3684 10.752C50.0697 10.576 49.691 10.488 49.2324 10.488C48.875 10.488 48.5497 10.5493 48.2564 10.672C47.9684 10.7893 47.7204 10.9707 47.5124 11.216C47.3044 11.4613 47.1417 11.7707 47.0244 12.144C46.9124 12.512 46.8564 12.9467 46.8564 13.448L45.9204 13.16C45.9204 12.3227 46.0697 11.6053 46.3684 11.008C46.6724 10.4053 47.0964 9.944 47.6404 9.624C48.1897 9.29867 48.835 9.136 49.5764 9.136C50.1364 9.136 50.6137 9.224 51.0084 9.4C51.403 9.576 51.731 9.81067 51.9924 10.104C52.2537 10.392 52.459 10.7173 52.6084 11.08C52.7577 11.4373 52.8617 11.8027 52.9204 12.176C52.9844 12.544 53.0164 12.8933 53.0164 13.224V18H51.5764ZM45.4164 18V9.36H46.6964V11.672H46.8564V18H45.4164ZM58.6803 18.232C57.6509 18.232 56.8056 18.008 56.1443 17.56C55.4883 17.1067 55.0856 16.4747 54.9363 15.664L56.3923 15.432C56.5096 15.9013 56.7789 16.2747 57.2003 16.552C57.6216 16.824 58.1443 16.96 58.7683 16.96C59.3603 16.96 59.8243 16.8373 60.1603 16.592C60.4963 16.3467 60.6643 16.0133 60.6643 15.592C60.6643 15.3467 60.6083 15.1493 60.4963 15C60.3843 14.8453 60.1523 14.7013 59.8003 14.568C59.4536 14.4347 58.9283 14.2747 58.2243 14.088C57.4616 13.8853 56.8616 13.6747 56.4243 13.456C55.9869 13.2373 55.6749 12.984 55.4883 12.696C55.3016 12.408 55.2083 12.0587 55.2083 11.648C55.2083 11.1413 55.3469 10.6987 55.6243 10.32C55.9016 9.936 56.2883 9.64 56.7843 9.432C57.2856 9.224 57.8669 9.12 58.5283 9.12C59.1843 9.12 59.7709 9.224 60.2883 9.432C60.8056 9.64 61.2216 9.936 61.5363 10.32C61.8563 10.6987 62.0456 11.1413 62.1043 11.648L60.6483 11.912C60.5789 11.448 60.3549 11.0827 59.9763 10.816C59.6029 10.5493 59.1203 10.408 58.5283 10.392C57.9683 10.3707 57.5123 10.4693 57.1603 10.688C56.8136 10.9067 56.6403 11.2027 56.6403 11.576C56.6403 11.784 56.7043 11.9627 56.8323 12.112C56.9656 12.2613 57.2083 12.4027 57.5603 12.536C57.9176 12.6693 58.4349 12.8213 59.1123 12.992C59.8749 13.184 60.4749 13.3947 60.9123 13.624C61.3549 13.848 61.6696 14.1147 61.8563 14.424C62.0429 14.728 62.1363 15.104 62.1363 15.552C62.1363 16.384 61.8296 17.04 61.2163 17.52C60.6029 17.9947 59.7576 18.232 58.6803 18.232ZM69.0446 18C68.5326 18.1013 68.026 18.1413 67.5246 18.12C67.0286 18.104 66.586 18.0053 66.1966 17.824C65.8073 17.6373 65.5113 17.3493 65.3086 16.96C65.138 16.6187 65.0446 16.2747 65.0286 15.928C65.018 15.576 65.0126 15.1787 65.0126 14.736V6.96H66.4366V14.672C66.4366 15.024 66.4393 15.3253 66.4446 15.576C66.4553 15.8267 66.5113 16.0427 66.6126 16.224C66.8046 16.5653 67.1086 16.7653 67.5246 16.824C67.946 16.8827 68.4526 16.8667 69.0446 16.776V18ZM63.2606 10.536V9.36H69.0446V10.536H63.2606ZM73.5748 18.24C72.9294 18.24 72.3881 18.1227 71.9508 17.888C71.5188 17.648 71.1908 17.3333 70.9668 16.944C70.7481 16.5547 70.6388 16.128 70.6388 15.664C70.6388 15.2107 70.7241 14.8187 70.8948 14.488C71.0708 14.152 71.3161 13.8747 71.6308 13.656C71.9454 13.432 72.3214 13.256 72.7588 13.128C73.1694 13.016 73.6281 12.92 74.1348 12.84C74.6468 12.7547 75.1641 12.6773 75.6868 12.608C76.2094 12.5387 76.6974 12.472 77.1508 12.408L76.6388 12.704C76.6548 11.936 76.5001 11.368 76.1748 11C75.8548 10.632 75.3001 10.448 74.5108 10.448C73.9881 10.448 73.5294 10.568 73.1348 10.808C72.7454 11.0427 72.4708 11.4267 72.3108 11.96L70.9588 11.552C71.1668 10.7947 71.5694 10.2 72.1668 9.768C72.7641 9.336 73.5508 9.12 74.5268 9.12C75.3108 9.12 75.9828 9.26133 76.5428 9.544C77.1081 9.82133 77.5134 10.2427 77.7588 10.808C77.8814 11.0747 77.9588 11.3653 77.9908 11.68C78.0228 11.9893 78.0388 12.3147 78.0388 12.656V18H76.7748V15.928L77.0708 16.12C76.7454 16.8187 76.2894 17.3467 75.7028 17.704C75.1214 18.0613 74.4121 18.24 73.5748 18.24ZM73.7908 17.048C74.3028 17.048 74.7454 16.9573 75.1188 16.776C75.4974 16.5893 75.8014 16.3467 76.0308 16.048C76.2601 15.744 76.4094 15.4133 76.4788 15.056C76.5588 14.7893 76.6014 14.4933 76.6068 14.168C76.6174 13.8373 76.6228 13.584 76.6228 13.408L77.1188 13.624C76.6548 13.688 76.1988 13.7493 75.7508 13.808C75.3028 13.8667 74.8788 13.9307 74.4788 14C74.0788 14.064 73.7188 14.1413 73.3988 14.232C73.1641 14.3067 72.9428 14.4027 72.7348 14.52C72.5321 14.6373 72.3668 14.7893 72.2388 14.976C72.1161 15.1573 72.0548 15.384 72.0548 15.656C72.0548 15.8907 72.1134 16.1147 72.2308 16.328C72.3534 16.5413 72.5401 16.7147 72.7908 16.848C73.0468 16.9813 73.3801 17.048 73.7908 17.048ZM83.9347 22.08C83.4814 22.08 83.0387 22.0107 82.6067 21.872C82.1747 21.7333 81.7774 21.5227 81.4147 21.24C81.0574 20.9627 80.7587 20.6107 80.5187 20.184L81.8227 19.496C82.0361 19.9173 82.3374 20.224 82.7267 20.416C83.1214 20.608 83.5267 20.704 83.9427 20.704C84.4921 20.704 84.9481 20.6027 85.3107 20.4C85.6734 20.2027 85.9401 19.9067 86.1107 19.512C86.2867 19.1173 86.3721 18.6267 86.3667 18.04V15.68H86.5347V9.36H87.7987V18.056C87.7987 18.2907 87.7907 18.5173 87.7747 18.736C87.7641 18.9547 87.7374 19.1707 87.6947 19.384C87.5827 19.9973 87.3614 20.5013 87.0307 20.896C86.7001 21.296 86.2734 21.592 85.7507 21.784C85.2281 21.9813 84.6227 22.08 83.9347 22.08ZM83.8307 18.24C83.0254 18.24 82.3347 18.04 81.7587 17.64C81.1827 17.2347 80.7374 16.688 80.4227 16C80.1134 15.312 79.9587 14.536 79.9587 13.672C79.9587 12.808 80.1134 12.032 80.4227 11.344C80.7374 10.656 81.1827 10.1147 81.7587 9.72C82.3347 9.32 83.0227 9.12 83.8227 9.12C84.6387 9.12 85.3241 9.31733 85.8787 9.712C86.4334 10.1067 86.8521 10.648 87.1347 11.336C87.4227 12.024 87.5667 12.8027 87.5667 13.672C87.5667 14.5307 87.4227 15.3067 87.1347 16C86.8521 16.688 86.4334 17.2347 85.8787 17.64C85.3241 18.04 84.6414 18.24 83.8307 18.24ZM84.0067 16.936C84.5881 16.936 85.0654 16.7973 85.4387 16.52C85.8121 16.2373 86.0867 15.8507 86.2627 15.36C86.4441 14.864 86.5347 14.3013 86.5347 13.672C86.5347 13.032 86.4441 12.4693 86.2627 11.984C86.0867 11.4933 85.8147 11.112 85.4467 10.84C85.0787 10.5627 84.6121 10.424 84.0467 10.424C83.4601 10.424 82.9747 10.568 82.5907 10.856C82.2121 11.144 81.9294 11.5333 81.7427 12.024C81.5614 12.5147 81.4707 13.064 81.4707 13.672C81.4707 14.2853 81.5641 14.84 81.7507 15.336C81.9374 15.8267 82.2174 16.216 82.5907 16.504C82.9694 16.792 83.4414 16.936 84.0067 16.936ZM90.3525 18V9.36H91.6245V11.448L91.4165 11.176C91.5178 10.9093 91.6485 10.664 91.8085 10.44C91.9738 10.216 92.1578 10.032 92.3605 9.888C92.5845 9.70667 92.8378 9.568 93.1205 9.472C93.4032 9.376 93.6912 9.32 93.9845 9.304C94.2778 9.28267 94.5525 9.30133 94.8085 9.36V10.696C94.5098 10.616 94.1818 10.5947 93.8245 10.632C93.4672 10.6693 93.1365 10.8 92.8325 11.024C92.5552 11.2213 92.3392 11.4613 92.1845 11.744C92.0352 12.0267 91.9312 12.3333 91.8725 12.664C91.8138 12.9893 91.7845 13.3227 91.7845 13.664V18H90.3525ZM98.816 18.24C98.1707 18.24 97.6293 18.1227 97.192 17.888C96.76 17.648 96.432 17.3333 96.208 16.944C95.9893 16.5547 95.88 16.128 95.88 15.664C95.88 15.2107 95.9653 14.8187 96.136 14.488C96.312 14.152 96.5573 13.8747 96.872 13.656C97.1867 13.432 97.5627 13.256 98 13.128C98.4107 13.016 98.8693 12.92 99.376 12.84C99.888 12.7547 100.405 12.6773 100.928 12.608C101.451 12.5387 101.939 12.472 102.392 12.408L101.88 12.704C101.896 11.936 101.741 11.368 101.416 11C101.096 10.632 100.541 10.448 99.752 10.448C99.2293 10.448 98.7707 10.568 98.376 10.808C97.9867 11.0427 97.712 11.4267 97.552 11.96L96.2 11.552C96.408 10.7947 96.8107 10.2 97.408 9.768C98.0053 9.336 98.792 9.12 99.768 9.12C100.552 9.12 101.224 9.26133 101.784 9.544C102.349 9.82133 102.755 10.2427 103 10.808C103.123 11.0747 103.2 11.3653 103.232 11.68C103.264 11.9893 103.28 12.3147 103.28 12.656V18H102.016V15.928L102.312 16.12C101.987 16.8187 101.531 17.3467 100.944 17.704C100.363 18.0613 99.6533 18.24 98.816 18.24ZM99.032 17.048C99.544 17.048 99.9867 16.9573 100.36 16.776C100.739 16.5893 101.043 16.3467 101.272 16.048C101.501 15.744 101.651 15.4133 101.72 15.056C101.8 14.7893 101.843 14.4933 101.848 14.168C101.859 13.8373 101.864 13.584 101.864 13.408L102.36 13.624C101.896 13.688 101.44 13.7493 100.992 13.808C100.544 13.8667 100.12 13.9307 99.72 14C99.32 14.064 98.96 14.1413 98.64 14.232C98.4053 14.3067 98.184 14.4027 97.976 14.52C97.7733 14.6373 97.608 14.7893 97.48 14.976C97.3573 15.1573 97.296 15.384 97.296 15.656C97.296 15.8907 97.3547 16.1147 97.472 16.328C97.5947 16.5413 97.7813 16.7147 98.032 16.848C98.288 16.9813 98.6213 17.048 99.032 17.048ZM116.008 18L116.016 12.472C116.016 11.8267 115.843 11.3227 115.496 10.96C115.155 10.592 114.709 10.408 114.16 10.408C113.84 10.408 113.536 10.4827 113.248 10.632C112.96 10.776 112.725 11.0053 112.544 11.32C112.363 11.6293 112.272 12.0267 112.272 12.512L111.52 12.208C111.509 11.5947 111.635 11.0587 111.896 10.6C112.163 10.136 112.525 9.776 112.984 9.52C113.443 9.264 113.96 9.136 114.536 9.136C115.437 9.136 116.147 9.41067 116.664 9.96C117.181 10.504 117.44 11.2373 117.44 12.16L117.432 18H116.008ZM105.672 18V9.36H106.944V11.672H107.104V18H105.672ZM110.848 18L110.856 12.528C110.856 11.8667 110.685 11.3493 110.344 10.976C110.003 10.5973 109.549 10.408 108.984 10.408C108.424 10.408 107.971 10.6 107.624 10.984C107.277 11.368 107.104 11.8773 107.104 12.512L106.352 12.064C106.352 11.504 106.485 11.0027 106.752 10.56C107.019 10.1173 107.381 9.77067 107.84 9.52C108.299 9.264 108.819 9.136 109.4 9.136C109.981 9.136 110.488 9.25867 110.92 9.504C111.352 9.74933 111.685 10.1013 111.92 10.56C112.155 11.0133 112.272 11.5547 112.272 12.184L112.264 18H110.848Z" fill="white" fill-opacity="0.75"/>
</svg>
