<svg width="252" height="52" viewBox="0 0 252 52" fill="none" xmlns="http://www.w3.org/2000/svg">
<path fill-rule="evenodd" clip-rule="evenodd" d="M4.99198 40.3729L4.97453 40.3507L4.95775 40.3281C-3.1981 29.6089 -1.07072 14.3523 9.7165 6.23852C14.2469 2.8309 20.2451 1.28426 24.7491 2.31528C13.0293 3.24721 5.03739 18.942 8.25262 29.3408C8.74028 28.5868 9.65454 27.6875 10.4158 27.115C13.8737 24.514 18.6005 24.6771 21.2379 28.0827L21.2386 28.0823L21.2554 28.1049L21.2728 28.1271L21.2724 28.1276C23.8588 31.5716 22.7362 36.1342 19.2783 38.7352C18.5171 39.3077 17.3977 39.9382 16.5349 40.2001C25.7432 46.0912 43.1213 42.7036 47.2 31.7525C46.9792 36.3373 43.8548 41.6523 39.3242 45.0597C28.537 53.1735 13.1724 51.0734 4.99198 40.3727V40.3729Z" fill="#96C61C"/>
<path fill-rule="evenodd" clip-rule="evenodd" d="M44.0935 11.0766L44.0807 11.0596L44.0675 11.0429L44.0547 11.0259L44.0415 11.0092C37.8582 2.97132 26.8034 1.11602 18.6495 7.21089C15.2251 9.77046 12.5669 14.0295 12.4 17.4735C15.5231 9.14065 28.21 6.62097 35.3168 11.1391C34.6644 11.3359 33.8183 11.8095 33.243 12.2394C30.6293 14.1931 29.7807 17.6205 31.7359 20.2073L31.7354 20.2075L31.7486 20.2241L31.7615 20.2412L31.7747 20.258L31.7875 20.2751L31.7879 20.2749C33.7815 22.8331 37.3543 22.9554 39.9681 21.002C40.5434 20.5718 41.2346 19.8964 41.6033 19.3302C44.0846 27.3054 38.1897 38.6752 29.2157 39.3843C32.6201 40.1588 37.4945 38.7875 40.9188 36.228C49.0727 30.1333 50.2584 19.1287 44.0935 11.0768V11.0766Z" fill="#09B7D9"/>
<path d="M176.98 36.2857C175.021 36.2857 173.311 35.8421 171.851 34.9549C170.41 34.0677 169.291 32.8571 168.497 31.323C167.72 29.7705 167.332 28.0331 167.332 26.1108C167.332 24.0962 167.73 22.3034 168.524 20.7323C169.338 19.1428 170.474 17.9137 171.935 17.045C173.413 16.1578 175.114 15.7142 177.036 15.7142C177.923 15.7142 178.736 15.7882 179.476 15.936C180.215 16.0839 180.852 16.2964 181.388 16.5737C181.906 16.8324 182.303 17.1559 182.581 17.544C182.858 17.9322 182.997 18.3573 182.997 18.8194C182.997 19.189 182.913 19.5309 182.747 19.8452C182.581 20.1594 182.359 20.4181 182.082 20.6214C181.804 20.8063 181.49 20.8987 181.139 20.8987C180.991 20.8987 180.816 20.871 180.612 20.8155C180.409 20.7416 180.196 20.6676 179.975 20.5937C179.365 20.3534 178.847 20.1778 178.422 20.0669C178.015 19.9376 177.59 19.8729 177.147 19.8729C176.093 19.8729 175.169 20.1316 174.374 20.6492C173.598 21.1667 173.007 21.8875 172.6 22.8117C172.193 23.7358 171.99 24.8078 171.99 26.0277C171.99 27.1921 172.184 28.2271 172.572 29.1328C172.96 30.02 173.515 30.7223 174.236 31.2398C174.975 31.7389 175.844 31.9884 176.842 31.9884C177.507 31.9884 178.071 31.9329 178.533 31.822C178.995 31.7112 179.476 31.554 179.975 31.3507C180.196 31.2583 180.418 31.1751 180.64 31.1012C180.862 31.0273 181.074 30.9903 181.278 30.9903C181.888 30.9903 182.359 31.1751 182.692 31.5448C183.024 31.9145 183.191 32.395 183.191 32.9865C183.191 33.4485 183.052 33.8736 182.775 34.2618C182.516 34.6499 182.146 34.9826 181.666 35.2599C181.074 35.5741 180.372 35.8236 179.559 36.0084C178.745 36.1932 177.886 36.2857 176.98 36.2857Z" fill="#09B7D9"/>
<path d="M187.787 35.8698C187.398 35.8698 187.038 35.7774 186.705 35.5926C186.391 35.4077 186.142 35.1582 185.957 34.844C185.772 34.5113 185.679 34.1509 185.679 33.7627V18.1817C185.679 17.4978 185.874 16.9618 186.262 16.5737C186.65 16.1671 187.177 15.9638 187.842 15.9638C188.489 15.9638 189.006 16.1671 189.395 16.5737C189.801 16.9618 190.004 17.4978 190.004 18.1817V31.8775H194.912C195.54 31.8775 196.048 32.0531 196.437 32.4043C196.825 32.7554 197.019 33.2452 197.019 33.8736C197.019 34.4651 196.825 34.9457 196.437 35.3153C196.048 35.685 195.549 35.8698 194.939 35.8698H187.787Z" fill="#09B7D9"/>
<path d="M201.412 36.0361C200.746 36.0361 200.22 35.8421 199.831 35.4539C199.443 35.0473 199.249 34.5021 199.249 33.8182V18.1817C199.249 17.4978 199.443 16.9618 199.831 16.5737C200.22 16.1671 200.746 15.9638 201.412 15.9638C202.059 15.9638 202.576 16.1671 202.964 16.5737C203.371 16.9618 203.574 17.4978 203.574 18.1817V33.8182C203.574 34.5021 203.371 35.0473 202.964 35.4539C202.576 35.8421 202.059 36.0361 201.412 36.0361Z" fill="#09B7D9"/>
<path d="M209.404 36.0361C208.739 36.0361 208.212 35.8421 207.824 35.4539C207.436 35.0473 207.242 34.5021 207.242 33.8182V18.1817C207.242 17.4978 207.436 16.9618 207.824 16.5737C208.23 16.1671 208.757 15.9638 209.404 15.9638C209.866 15.9638 210.236 16.0562 210.513 16.241C210.809 16.4258 211.151 16.7585 211.539 17.2391L220.05 28.0238H220.106V18.1817C220.106 17.4978 220.3 16.9618 220.688 16.5737C221.076 16.1671 221.603 15.9638 222.268 15.9638C222.915 15.9638 223.433 16.1671 223.821 16.5737C224.227 16.9618 224.431 17.4978 224.431 18.1817V33.8182C224.431 34.5021 224.227 35.0473 223.821 35.4539C223.433 35.8421 222.915 36.0361 222.268 36.0361C221.806 36.0361 221.418 35.9252 221.104 35.7035C220.79 35.4817 220.411 35.1028 219.967 34.5668L211.622 23.9761H211.567V33.8182C211.567 34.5021 211.363 35.0473 210.957 35.4539C210.569 35.8421 210.051 36.0361 209.404 36.0361Z" fill="#09B7D9"/>
<path d="M230.23 36.0361C229.564 36.0361 229.038 35.8421 228.65 35.4539C228.261 35.0473 228.067 34.5021 228.067 33.8182V18.1817C228.067 17.4978 228.261 16.9618 228.65 16.5737C229.038 16.1671 229.564 15.9638 230.23 15.9638C230.877 15.9638 231.394 16.1671 231.782 16.5737C232.189 16.9618 232.392 17.4978 232.392 18.1817V33.8182C232.392 34.5021 232.189 35.0473 231.782 35.4539C231.394 35.8421 230.877 36.0361 230.23 36.0361Z" fill="#09B7D9"/>
<path d="M245.181 36.2857C243.222 36.2857 241.512 35.8421 240.052 34.9549C238.61 34.0677 237.492 32.8571 236.697 31.323C235.921 29.7705 235.533 28.0331 235.533 26.1108C235.533 24.0962 235.93 22.3034 236.725 20.7323C237.538 19.1428 238.675 17.9137 240.135 17.045C241.614 16.1578 243.314 15.7142 245.236 15.7142C246.124 15.7142 246.937 15.7882 247.676 15.936C248.416 16.0839 249.053 16.2964 249.589 16.5737C250.107 16.8324 250.504 17.1559 250.781 17.544C251.059 17.9322 251.197 18.3573 251.197 18.8194C251.197 19.189 251.114 19.5309 250.948 19.8452C250.781 20.1594 250.56 20.4181 250.282 20.6214C250.005 20.8063 249.691 20.8987 249.34 20.8987C249.192 20.8987 249.016 20.871 248.813 20.8155C248.61 20.7416 248.397 20.6676 248.175 20.5937C247.565 20.3534 247.048 20.1778 246.623 20.0669C246.216 19.9376 245.791 19.8729 245.347 19.8729C244.294 19.8729 243.37 20.1316 242.575 20.6492C241.799 21.1667 241.207 21.8875 240.801 22.8117C240.394 23.7358 240.191 24.8078 240.191 26.0277C240.191 27.1921 240.385 28.2271 240.773 29.1328C241.161 30.02 241.715 30.7223 242.436 31.2398C243.176 31.7389 244.044 31.9884 245.042 31.9884C245.708 31.9884 246.272 31.9329 246.734 31.822C247.196 31.7112 247.676 31.554 248.175 31.3507C248.397 31.2583 248.619 31.1751 248.841 31.1012C249.062 31.0273 249.275 30.9903 249.478 30.9903C250.088 30.9903 250.56 31.1751 250.892 31.5448C251.225 31.9145 251.391 32.395 251.391 32.9865C251.391 33.4485 251.253 33.8736 250.975 34.2618C250.717 34.6499 250.347 34.9826 249.866 35.2599C249.275 35.5741 248.573 35.8236 247.759 36.0084C246.946 36.1932 246.087 36.2857 245.181 36.2857Z" fill="#09B7D9"/>
<path d="M70.7339 36.0361C70.0685 36.0361 69.5418 35.8421 69.1536 35.4539C68.7655 35.0473 68.5714 34.5021 68.5714 33.8182V18.1817C68.5714 17.4978 68.7655 16.9618 69.1536 16.5737C69.5418 16.1671 70.0685 15.9638 70.7339 15.9638C71.3808 15.9638 71.8983 16.1671 72.2865 16.5737C72.6931 16.9618 72.8964 17.4978 72.8964 18.1817V23.7543H81.4355V18.1817C81.4355 17.4978 81.6296 16.9618 82.0177 16.5737C82.4058 16.1671 82.9326 15.9638 83.598 15.9638C84.2449 15.9638 84.7624 16.1671 85.1505 16.5737C85.5572 16.9618 85.7605 17.4978 85.7605 18.1817V33.8182C85.7605 34.5021 85.5572 35.0473 85.1505 35.4539C84.7624 35.8421 84.2449 36.0361 83.598 36.0361C82.9326 36.0361 82.4058 35.8421 82.0177 35.4539C81.6296 35.0473 81.4355 34.5021 81.4355 33.8182V27.7466H72.8964V33.8182C72.8964 34.5021 72.6931 35.0473 72.2865 35.4539C71.8983 35.8421 71.3808 36.0361 70.7339 36.0361Z" fill="#96C61C"/>
<path d="M90.3668 36.0361C89.7384 36.0361 89.2301 35.879 88.842 35.5648C88.4723 35.2321 88.2875 34.7978 88.2875 34.2618C88.2875 33.5964 88.5093 32.6907 88.9529 31.5448L93.8601 18.4035C94.1928 17.5163 94.6086 16.8509 95.1077 16.4073C95.6252 15.9453 96.2629 15.7142 97.0207 15.7142C97.76 15.7142 98.3791 15.9453 98.8782 16.4073C99.3957 16.8509 99.8208 17.5163 100.153 18.4035L105.088 31.6003C105.292 32.1917 105.449 32.6907 105.56 33.0974C105.671 33.4855 105.726 33.8737 105.726 34.2618C105.726 34.7978 105.532 35.2321 105.144 35.5648C104.774 35.879 104.275 36.0361 103.647 36.0361C103.018 36.0361 102.538 35.8606 102.205 35.5094C101.872 35.1582 101.595 34.613 101.373 33.8736L100.763 32.0438H93.2501L92.6679 33.8182C92.4831 34.3912 92.289 34.844 92.0857 35.1767C91.8824 35.4909 91.6421 35.7127 91.3649 35.8421C91.1061 35.9715 90.7734 36.0361 90.3668 36.0361ZM99.4881 28.0238L97.1038 20.5383H97.0484L94.5255 28.0238H99.4881Z" fill="#96C61C"/>
<path d="M110.409 36.0361C109.744 36.0361 109.217 35.8421 108.829 35.4539C108.44 35.0473 108.246 34.5021 108.246 33.8182V18.2371C108.246 17.849 108.339 17.4978 108.524 17.1836C108.708 16.8509 108.958 16.5922 109.272 16.4073C109.605 16.2225 109.965 16.1301 110.353 16.1301H115.981C117.127 16.1301 118.199 16.3889 119.197 16.9064C120.214 17.4239 121.037 18.1725 121.665 19.152C122.293 20.1316 122.608 21.2868 122.608 22.6176C122.608 24.0223 122.34 25.2422 121.804 26.2772C121.268 27.2938 120.51 28.0793 119.53 28.6338C118.551 29.1698 117.405 29.4378 116.092 29.4378H112.571V33.8182C112.571 34.5021 112.368 35.0473 111.961 35.4539C111.573 35.8421 111.056 36.0361 110.409 36.0361ZM115.122 25.5841C115.695 25.5841 116.203 25.4639 116.647 25.2237C117.109 24.9649 117.469 24.623 117.728 24.1979C117.987 23.7728 118.116 23.3107 118.116 22.8117C118.116 21.9245 117.839 21.2314 117.285 20.7323C116.749 20.2333 116.037 19.9838 115.15 19.9838H112.571V25.5841H115.122Z" fill="#96C61C"/>
<path d="M127.607 36.0361C126.941 36.0361 126.414 35.8421 126.026 35.4539C125.638 35.0473 125.444 34.5021 125.444 33.8182V18.2371C125.444 17.849 125.537 17.4978 125.721 17.1836C125.906 16.8509 126.156 16.5922 126.47 16.4073C126.803 16.2225 127.163 16.1301 127.551 16.1301H133.179C134.325 16.1301 135.397 16.3889 136.395 16.9064C137.412 17.4239 138.234 18.1725 138.863 19.152C139.491 20.1316 139.805 21.2868 139.805 22.6176C139.805 24.0223 139.537 25.2422 139.001 26.2772C138.465 27.2938 137.707 28.0793 136.728 28.6338C135.748 29.1698 134.602 29.4378 133.29 29.4378H129.769V33.8182C129.769 34.5021 129.566 35.0473 129.159 35.4539C128.771 35.8421 128.254 36.0361 127.607 36.0361ZM132.32 25.5841C132.893 25.5841 133.401 25.4639 133.845 25.2237C134.307 24.9649 134.667 24.623 134.926 24.1979C135.185 23.7728 135.314 23.3107 135.314 22.8117C135.314 21.9245 135.037 21.2314 134.482 20.7323C133.946 20.2333 133.235 19.9838 132.347 19.9838H129.769V25.5841H132.32Z" fill="#96C61C"/>
<path d="M148.908 36.0361C148.261 36.0361 147.734 35.8421 147.327 35.4539C146.939 35.0473 146.745 34.5021 146.745 33.8182V26.6099L142.864 21.2591C142.161 20.3165 141.681 19.6234 141.422 19.1798C141.145 18.7177 141.006 18.2834 141.006 17.8767C141.006 17.5256 141.108 17.2021 141.311 16.9064C141.514 16.6107 141.792 16.3796 142.143 16.2133C142.494 16.0469 142.882 15.9638 143.307 15.9638C143.677 15.9638 144 16.0469 144.278 16.2133C144.573 16.3796 144.804 16.5737 144.971 16.7955C145.156 16.9988 145.377 17.276 145.636 17.6272L148.908 22.3958L152.262 17.5163C152.576 17.0542 152.863 16.7123 153.122 16.4905C153.399 16.2687 153.639 16.1301 153.842 16.0746C154.046 16.0007 154.277 15.9638 154.536 15.9638C154.961 15.9638 155.349 16.0469 155.7 16.2133C156.051 16.3796 156.319 16.6107 156.504 16.9064C156.707 17.2021 156.809 17.5256 156.809 17.8767C156.809 18.2649 156.689 18.6807 156.449 19.1243C156.208 19.5494 155.746 20.2148 155.062 21.1205L151.07 26.6099V33.8182C151.07 34.5021 150.876 35.0473 150.488 35.4539C150.1 35.8421 149.573 36.0361 148.908 36.0361Z" fill="#96C61C"/>
</svg>
