<svg width="24" height="24" viewBox="0 0 24 24" fill="none" xmlns="http://www.w3.org/2000/svg">
<path d="M20.1055 16.6924V19.2727C20.1065 19.5122 20.0574 19.7493 19.9615 19.9688C19.8655 20.1883 19.7247 20.3853 19.5482 20.5472C19.3717 20.7092 19.1633 20.8325 18.9364 20.9092C18.7095 20.9859 18.4691 21.0144 18.2305 20.9929C15.5839 20.7053 13.0416 19.8009 10.808 18.3524C8.72985 17.0319 6.96797 15.27 5.64745 13.1919C4.19388 10.9481 3.2893 8.39346 3.00698 5.73494C2.98549 5.49709 3.01375 5.25738 3.08998 5.03106C3.16621 4.80474 3.28872 4.59677 3.44972 4.4204C3.61073 4.24402 3.80669 4.1031 4.02514 4.00661C4.24359 3.91012 4.47974 3.86017 4.71855 3.85995H7.29881C7.71622 3.85584 8.12088 4.00365 8.43736 4.27583C8.75385 4.548 8.96057 4.92598 9.01899 5.3393C9.12789 6.16504 9.32987 6.97581 9.62105 7.75614C9.73677 8.06399 9.76181 8.39855 9.69322 8.72019C9.62462 9.04184 9.46526 9.33708 9.23401 9.57092L8.1417 10.6632C9.36608 12.8165 11.149 14.5994 13.3022 15.8238L14.3945 14.7314C14.6284 14.5002 14.9236 14.3408 15.2453 14.2722C15.5669 14.2036 15.9015 14.2287 16.2093 14.3444C16.9896 14.6356 17.8004 14.8376 18.6262 14.9465C19.044 15.0054 19.4255 15.2159 19.6983 15.5378C19.971 15.8597 20.116 16.2706 20.1055 16.6924Z" fill="url(#paint0_linear_518_176)"/>
<defs>
<linearGradient id="paint0_linear_518_176" x1="-5.5" y1="21" x2="5.50486" y2="-2.92659" gradientUnits="userSpaceOnUse">
<stop stop-color="#09B7D9"/>
<stop offset="1" stop-color="#96C61C"/>
</linearGradient>
</defs>
</svg>
